<svg id="Layer_1" enable-background="new 0 0 512 512" height="512" viewBox="0 0 512 512" width="512" fill="#ffffff" xmlns="http://www.w3.org/2000/svg"><g><circle cx="419.166" cy="102.21" r="10"/><path d="m501.991 316c5.523 0 10-4.478 10-10s-4.477-10-10-10h-10v-106h10c4.13 0 7.78-2.48 9.3-6.32s.55-8.14-2.45-10.97l-50.029-46.99c-1.86-1.74-4.29-2.71-6.85-2.71-2.75 0-5.4 1.15-7.29 3.16-1.82 1.939-2.79 4.49-2.7 7.16.08 2.67 1.2 5.14 3.15 6.97l31.62 29.7h-311.495l155.747-146.28 58.529 54.97c1.86 1.74 4.29 2.71 6.84 2.71 2.75 0 5.41-1.149 7.29-3.159 1.83-1.94 2.79-4.49 2.71-7.16-.09-2.67-1.21-5.141-3.15-6.971l-65.369-61.4c-1.87-1.75-4.3-2.71-6.849-2.71-2.55 0-4.99.96-6.85 2.71l-180.997 170c-3 2.83-3.97 7.13-2.45 10.97s5.17 6.32 9.3 6.32h12v106h-29.999c-2.002 0-3.958.601-5.615 1.726l-111.998 76c-2.691 1.826-4.375 5.007-4.385 8.28v.046 119.948c0 5.522 4.477 10 10 10h491.991c5.523 0 10-4.478 10-10s-4.477-10-10-10h-10v-60h10c5.523 0 10-4.478 10-10v-40c0-5.522-4.477-10-10-10h-10v-56zm-30-20h-20v-106h20zm-259.995 76v-56h219.996v56zm-39.999-56h20v56h-20zm39.999-20v-66h219.996v66zm219.996-86h-219.996v-20h219.996zm-259.995-20h20v106h-20zm-46.927 126h26.927v56h-12c-5.523 0-10 4.478-10 10v30h-29.999c-5.523 0-10 4.478-10 10v30h-29.999v-91.844zm-105.07 71.299 20-13.572v78.273h-20zm0 84.701h79.999c5.523 0 10-4.478 10-10v-30h41.999v60h-131.998zm151.997 20v-60h20v60zm119.998-60v60h-79.999v-60zm19.999 60v-60h20v60zm119.998-60v60h-79.999v-60zm39.999 60h-20v-60h20zm20-80h-341.994v-20h341.994zm-20-40h-20v-56h20z"/></g></svg>